<?xml version="1.0" encoding="UTF-8"?>
<svg xmlns="http://www.w3.org/2000/svg" xmlns:xlink="http://www.w3.org/1999/xlink" width="5000pt" height="5000pt" viewBox="0 0 5000 5000" version="1.1">
<g id="surface1">
<rect x="0" y="0" width="5000" height="5000" style="fill:rgb(100%,100%,100%);fill-opacity:1;stroke:none;"/>
<path style="fill:none;stroke-width:2;stroke-linecap:butt;stroke-linejoin:miter;stroke:rgb(0%,0%,0%);stroke-opacity:1;stroke-miterlimit:10;" d="M 0 0 L 0 5000 M 100 0 L 100 5000 M 200 0 L 200 5000 M 300 0 L 300 5000 M 400 0 L 400 5000 M 500 0 L 500 5000 M 600 0 L 600 5000 M 700 0 L 700 5000 M 800 0 L 800 5000 M 900 0 L 900 5000 M 1000 0 L 1000 5000 M 1100 0 L 1100 5000 M 1200 0 L 1200 5000 M 1300 0 L 1300 5000 M 1400 0 L 1400 5000 M 1500 0 L 1500 5000 M 1600 0 L 1600 5000 M 1700 0 L 1700 5000 M 1800 0 L 1800 5000 M 1900 0 L 1900 5000 M 2000 0 L 2000 5000 M 2100 0 L 2100 5000 M 2200 0 L 2200 5000 M 2300 0 L 2300 5000 M 2400 0 L 2400 5000 M 2500 0 L 2500 5000 M 2600 0 L 2600 5000 M 2700 0 L 2700 5000 M 2800 0 L 2800 5000 M 2900 0 L 2900 5000 M 3000 0 L 3000 5000 M 3100 0 L 3100 5000 M 3200 0 L 3200 5000 M 3300 0 L 3300 5000 M 3400 0 L 3400 5000 M 3500 0 L 3500 5000 M 3600 0 L 3600 5000 M 3700 0 L 3700 5000 M 3800 0 L 3800 5000 M 3900 0 L 3900 5000 M 4000 0 L 4000 5000 M 4100 0 L 4100 5000 M 4200 0 L 4200 5000 M 4300 0 L 4300 5000 M 4400 0 L 4400 5000 M 4500 0 L 4500 5000 M 4600 0 L 4600 5000 M 4700 0 L 4700 5000 M 4800 0 L 4800 5000 M 4900 0 L 4900 5000 M 0 0 L 5000 0 M 0 100 L 5000 100 M 0 200 L 5000 200 M 0 300 L 5000 300 M 0 400 L 5000 400 M 0 500 L 5000 500 M 0 600 L 5000 600 M 0 700 L 5000 700 M 0 800 L 5000 800 M 0 900 L 5000 900 M 0 1000 L 5000 1000 M 0 1100 L 5000 1100 M 0 1200 L 5000 1200 M 0 1300 L 5000 1300 M 0 1400 L 5000 1400 M 0 1500 L 5000 1500 M 0 1600 L 5000 1600 M 0 1700 L 5000 1700 M 0 1800 L 5000 1800 M 0 1900 L 5000 1900 M 0 2000 L 5000 2000 M 0 2100 L 5000 2100 M 0 2200 L 5000 2200 M 0 2300 L 5000 2300 M 0 2400 L 5000 2400 M 0 2500 L 5000 2500 M 0 2600 L 5000 2600 M 0 2700 L 5000 2700 M 0 2800 L 5000 2800 M 0 2900 L 5000 2900 M 0 3000 L 5000 3000 M 0 3100 L 5000 3100 M 0 3200 L 5000 3200 M 0 3300 L 5000 3300 M 0 3400 L 5000 3400 M 0 3500 L 5000 3500 M 0 3600 L 5000 3600 M 0 3700 L 5000 3700 M 0 3800 L 5000 3800 M 0 3900 L 5000 3900 M 0 4000 L 5000 4000 M 0 4100 L 5000 4100 M 0 4200 L 5000 4200 M 0 4300 L 5000 4300 M 0 4400 L 5000 4400 M 0 4500 L 5000 4500 M 0 4600 L 5000 4600 M 0 4700 L 5000 4700 M 0 4800 L 5000 4800 M 0 4900 L 5000 4900 " transform="matrix(1,0,0,-1,0,5000)"/>
<path style=" stroke:none;fill-rule:nonzero;fill:rgb(0%,0%,0%);fill-opacity:1;" d="M 0 5000 L 0 0 M 100 5000 L 100 0 M 200 5000 L 200 0 M 300 5000 L 300 0 M 400 5000 L 400 0 M 500 5000 L 500 0 M 600 5000 L 600 0 M 700 5000 L 700 0 M 800 5000 L 800 0 M 900 5000 L 900 0 M 1000 5000 L 1000 0 M 1100 5000 L 1100 0 M 1200 5000 L 1200 0 M 1300 5000 L 1300 0 M 1400 5000 L 1400 0 M 1500 5000 L 1500 0 M 1600 5000 L 1600 0 M 1700 5000 L 1700 0 M 1800 5000 L 1800 0 M 1900 5000 L 1900 0 M 2000 5000 L 2000 0 M 2100 5000 L 2100 0 M 2200 5000 L 2200 0 M 2300 5000 L 2300 0 M 2400 5000 L 2400 0 M 2500 5000 L 2500 0 M 2600 5000 L 2600 0 M 2700 5000 L 2700 0 M 2800 5000 L 2800 0 M 2900 5000 L 2900 0 M 3000 5000 L 3000 0 M 3100 5000 L 3100 0 M 3200 5000 L 3200 0 M 3300 5000 L 3300 0 M 3400 5000 L 3400 0 M 3500 5000 L 3500 0 M 3600 5000 L 3600 0 M 3700 5000 L 3700 0 M 3800 5000 L 3800 0 M 3900 5000 L 3900 0 M 4000 5000 L 4000 0 M 4100 5000 L 4100 0 M 4200 5000 L 4200 0 M 4300 5000 L 4300 0 M 4400 5000 L 4400 0 M 4500 5000 L 4500 0 M 4600 5000 L 4600 0 M 4700 5000 L 4700 0 M 4800 5000 L 4800 0 M 4900 5000 L 4900 0 M 0 5000 L 5000 5000 M 0 4900 L 5000 4900 M 0 4800 L 5000 4800 M 0 4700 L 5000 4700 M 0 4600 L 5000 4600 M 0 4500 L 5000 4500 M 0 4400 L 5000 4400 M 0 4300 L 5000 4300 M 0 4200 L 5000 4200 M 0 4100 L 5000 4100 M 0 4000 L 5000 4000 M 0 3900 L 5000 3900 M 0 3800 L 5000 3800 M 0 3700 L 5000 3700 M 0 3600 L 5000 3600 M 0 3500 L 5000 3500 M 0 3400 L 5000 3400 M 0 3300 L 5000 3300 M 0 3200 L 5000 3200 M 0 3100 L 5000 3100 M 0 3000 L 5000 3000 M 0 2900 L 5000 2900 M 0 2800 L 5000 2800 M 0 2700 L 5000 2700 M 0 2600 L 5000 2600 M 0 2500 L 5000 2500 M 0 2400 L 5000 2400 M 0 2300 L 5000 2300 M 0 2200 L 5000 2200 M 0 2100 L 5000 2100 M 0 2000 L 5000 2000 M 0 1900 L 5000 1900 M 0 1800 L 5000 1800 M 0 1700 L 5000 1700 M 0 1600 L 5000 1600 M 0 1500 L 5000 1500 M 0 1400 L 5000 1400 M 0 1300 L 5000 1300 M 0 1200 L 5000 1200 M 0 1100 L 5000 1100 M 0 1000 L 5000 1000 M 0 900 L 5000 900 M 0 800 L 5000 800 M 0 700 L 5000 700 M 0 600 L 5000 600 M 0 500 L 5000 500 M 0 400 L 5000 400 M 0 300 L 5000 300 M 0 200 L 5000 200 M 0 100 L 5000 100 "/>
</g>
</svg>
